M48
FMAT,2
INCH,LZ
T1C0.0130
T2C0.0310
%
T1
X006625Y00575
X003375Y00625
X006625Y00275
X00805Y00175
X004375Y00275
X005625Y00275
X006625Y00425
X006625Y00675
X006125Y00675
X006625Y00475
X003375Y00475
X003375Y00525
X003375Y00375
X003375Y00575
X003875Y00275
X004875Y00675
X006625Y00625
X003375Y00325
X00755Y00075
X006625Y00525
X005125Y00275
X006125Y00275
X006625Y00375
X006625Y00325
X005125Y00675
X003375Y00275
X004375Y00675
X003375Y00675
X0022Y002
X003875Y00675
X005625Y00675
X003375Y00425
X00255Y00075
X004875Y00275
T2
X0095Y0015
X0095Y0035
X0005Y0035
X0095Y0045
X0095Y0005
X0005Y0045
X0095Y0065
X0095Y0055
X0005Y0065
X0005Y0015
X0095Y0025
X0005Y0005
X0005Y0055
X0005Y0025
M30
