%FSTAX24Y24*%
%MOIN*%
%IN LAYER1.GBR *%
%ADD10C,0.0010*%
%ADD11C,0.0030*%
%ADD12C,0.0080*%
%ADD13C,0.0200*%
%ADD14C,0.0240*%
%ADD15C,0.0250*%
%ADD16C,0.0370*%
%ADD17C,0.0600*%
%ADD18C,0.0720*%
%ADD19R,0.0280X0.0380*%
%ADD20R,0.0380X0.0280*%
%ADD21R,0.0394X0.0965*%
%ADD22R,0.0400X0.0500*%
%ADD23R,0.0500X0.0400*%
%ADD24R,0.0514X0.1085*%
%ADD25R,0.0965X0.0394*%
%ADD26R,0.1085X0.0514*%
D10*X003125Y004812D02*G01Y002625D01*X006875D01*Y007D01*X003125D01*
Y004812D01*G36*G01Y002625D01*X006875D01*Y007D01*X003125D01*Y004812D01*
G37*
%LPC*%
D26*X002441Y006787D03*D24*X003622Y001944D03*X004173D03*X004724D03*
X005276D03*X005827D03*X006378D03*X006929D03*D26*X007559Y002928D03*
Y00348D03*Y004031D03*X002441Y006235D03*X007559Y004582D03*Y005133D03*
Y005684D03*Y006235D03*Y006787D03*X002441Y005684D03*Y005133D03*
Y004582D03*Y004031D03*Y00348D03*Y002928D03*D24*X003071Y001944D03*D18*
X0095Y0015D03*Y0035D03*X0005D03*X0095Y0045D03*Y0005D03*X0005Y0045D03*
X0095Y0065D03*Y0055D03*X0005Y0065D03*Y0015D03*X0095Y0025D03*
X0005Y0005D03*Y0055D03*Y0025D03*D22*X00125Y002D03*X00185D03*D16*
X00805Y00175D03*X00755Y00075D03*D22*X0065D03*X0071D03*D16*X0022Y002D03*
D23*X00805Y000775D03*Y001375D03*D22*X00415Y00075D03*X00475D03*X0053D03*
X0059D03*D16*X00255D03*D22*X00295D03*X00355D03*D13*X00325Y00295D02*
G01X00275D01*X00675Y0027D02*X0069Y0023D01*X0068Y00675D02*X00715D01*
X0068Y00625D02*X0072D01*X0068Y00515D02*X0072D01*X002441Y004582D02*
Y00348D01*D14*X002125Y00675D02*X001125D01*X0005Y0065D01*
X002125Y00625D02*X001125D01*Y0055D01*X0005D01*X00225Y005625D02*
X001375D01*Y0045D01*X0005D01*X002125Y005125D02*X001625D01*Y004D01*
X001125D01*X0005Y0035D01*D13*Y0025D02*X00125D01*Y0035D01*X002125D01*
D14*X003Y001625D02*X001125D01*X0005Y0015D01*X00125Y00125D02*
X0005Y0005D01*X00125Y00125D02*X003625D01*X003622Y001944D01*
X0095Y0045D02*X007875D01*X0095Y0035D02*X009125Y004D01*X007875D01*
X009375Y002625D02*X008875Y0035D01*X007875D01*X008875Y002875D02*X008D01*
X008875Y0015D02*Y002875D01*X0095Y0015D02*X008875D01*X0095Y0055D02*
X009Y005625D01*X007875D01*X00805Y00175D02*Y001375D01*X00755Y00075D02*
X0071D01*X00755D02*X00805D01*D13*X00125Y00255D02*Y0021D01*X0022Y002D02*
X00185D01*D14*X00475Y00075D02*Y00185D01*X0053Y00075D02*Y0018D01*
X00255Y00075D02*X00295D01*X0042D02*X00355D01*X0065D02*X0059D01*
%LPD*%
D25*X002441Y006787D03*D21*X003622Y001944D03*X004173D03*X004724D03*
X005276D03*X005827D03*X006378D03*X006929D03*D25*X007559Y002928D03*
Y00348D03*Y004031D03*X002441Y006235D03*X007559Y004582D03*Y005133D03*
Y005684D03*Y006235D03*Y006787D03*X002441Y005684D03*Y005133D03*
Y004582D03*Y004031D03*Y00348D03*Y002928D03*D21*X003071Y001944D03*D17*
X0095Y0015D03*Y0035D03*X0005D03*X0095Y0045D03*Y0005D03*X0005Y0045D03*
X0095Y0065D03*Y0055D03*X0005Y0065D03*Y0015D03*X0095Y0025D03*
X0005Y0005D03*Y0055D03*Y0025D03*D19*X00125Y002D03*X00185D03*D15*
X00805Y00175D03*X00755Y00075D03*D19*X0065D03*X0071D03*D15*X0022Y002D03*
D20*X00805Y000775D03*Y001375D03*D19*X00415Y00075D03*X00475D03*X0053D03*
X0059D03*D15*X00255D03*D19*X00295D03*X00355D03*D13*X00325Y00295D02*
X00275D01*X00675Y0027D02*X0069Y0023D01*X0068Y00675D02*X00715D01*
X0068Y00625D02*X0072D01*X0068Y00515D02*X0072D01*X002441Y004582D02*
Y00348D01*D12*X002125Y00675D02*X001125D01*X0005Y0065D01*
X002125Y00625D02*X001125D01*Y0055D01*X0005D01*X00225Y005625D02*
X001375D01*Y0045D01*X0005D01*X002125Y005125D02*X001625D01*Y004D01*
X001125D01*X0005Y0035D01*D13*Y0025D02*X00125D01*Y0035D01*X002125D01*
D12*X003Y001625D02*X001125D01*X0005Y0015D01*X00125Y00125D02*
X0005Y0005D01*X00125Y00125D02*X003625D01*X003622Y001944D01*
X0095Y0045D02*X007875D01*X0095Y0035D02*X009125Y004D01*X007875D01*
X009375Y002625D02*X008875Y0035D01*X007875D01*X008875Y002875D02*X008D01*
X008875Y0015D02*Y002875D01*X0095Y0015D02*X008875D01*X0095Y0055D02*
X009Y005625D01*X007875D01*X00805Y00175D02*Y001375D01*X00755Y00075D02*
X0071D01*X00755D02*X00805D01*D13*X00125Y00255D02*Y0021D01*X0022Y002D02*
X00185D01*D12*X00475Y00075D02*Y00185D01*X0053Y00075D02*Y0018D01*
X00255Y00075D02*X00295D01*X0042D02*X00355D01*X0065D02*X0059D01*
M02*