%FSTAX24Y24*%
%MOIN*%
%IN SILK1.GBR *%
%ADD10C,0.0036*%
%ADD11C,0.0043*%
%ADD12C,0.0060*%
%ADD13C,0.0071*%
%ADD14C,0.0080*%
D12*X001025Y001725D02*G01Y002275D01*X002075Y001725D02*Y002275D01*
X001025Y001725D02*X002075D01*X001025Y002275D02*X002075D01*D14*
X002441Y002633D02*Y001944D01*X002736D01*X007559Y002633D02*Y001944D01*
X007264D01*X003031Y006964D02*X006969D01*D12*X006275Y000475D02*
Y001025D01*X007325Y000475D02*Y001025D01*X006275Y000475D02*X007325D01*
X006275Y001025D02*X007325D01*X008325Y00055D02*X007775D01*
X008325Y0016D02*X007775D01*X008325Y00055D02*Y0016D01*X007775Y00055D02*
Y0016D01*X003925Y000475D02*Y001025D01*X004975Y000475D02*Y001025D01*
X003925Y000475D02*X004975D01*X003925Y001025D02*X004975D01*
X005075Y000475D02*Y001025D01*X006125Y000475D02*Y001025D01*
X005075Y000475D02*X006125D01*X005075Y001025D02*X006125D01*
X002725Y000475D02*Y001025D01*X003775Y000475D02*Y001025D01*
X002725Y000475D02*X003775D01*X002725Y001025D02*X003775D01*
X00465Y0014D02*Y0011D01*X0044Y00125D01*X00465Y0014D01*X00435D02*
Y0011D01*X0054Y0014D02*X00565Y00125D01*X0054Y0014D02*Y0011D01*
X00565Y00125D01*X0057Y0014D02*Y0011D01*D10*X007036Y001125D02*
Y001339D01*X007143D01*X007179Y001304D01*Y001268D01*X007143Y001232D01*
X007179Y001125D01*X007143Y001232D02*X007036D01*X00725Y001304D02*
X007286Y001339D01*X007357D01*X007393Y001304D01*Y001268D01*
X007357Y001232D01*X00725Y001161D01*Y001125D01*X007393D01*
X002029Y002529D02*X001993Y002564D01*X001921D01*X001886Y002529D01*
Y002386D01*X001921Y00235D01*X001993D01*X002029Y002386D01*
X002136Y002529D02*X002171Y002564D01*Y00235D01*X002207D01*X002171D02*
X002136D01*D13*X003857Y004607D02*X003786Y004679D01*X003571D01*
Y00425D01*X003786D01*X003857Y004321D01*Y004607D01*X004Y004679D02*
X004071Y00425D01*X004143Y004679D01*X004214Y00425D01*X004286Y004679D01*
X004429Y00425D02*Y004679D01*X004571Y004464D01*X004714Y004679D01*
Y00425D01*X004929Y004607D02*X005Y004679D01*Y00425D01*X005071D01*
X005D02*X004929D01*X005571Y004607D02*X0055Y004679D01*X005357D01*
X005286Y004607D01*Y004321D01*X005357Y00425D01*X0055D01*
X005571Y004321D01*Y004607D01*X005429Y004536D02*Y004393D01*
X006Y004607D02*X005929Y004679D01*X005786D01*X005714Y004607D01*
Y004321D01*X005786Y00425D01*X005929D01*X006Y004321D01*Y004607D01*
X005857Y004536D02*Y004393D01*X006429Y004607D02*X006357Y004679D01*
X006214D01*X006143Y004607D01*Y004321D01*X006214Y00425D01*X006357D01*
X006429Y004321D01*Y004607D01*X006286Y004536D02*Y004393D01*D11*
X008789Y001564D02*X008746Y001607D01*X008661D01*X008618Y001564D01*
Y001393D01*X008661Y00135D01*X008746D01*X008789Y001393D01*
X009046Y001564D02*X009004Y001607D01*X008918D01*X008875Y001564D01*
Y001521D01*X008918Y001479D01*X009004D01*X009046Y001436D01*Y001393D01*
X009004Y00135D01*X008918D01*X008875Y001393D01*X008193Y00335D02*
Y003607D01*X008279Y003479D01*X008364Y003607D01*Y00335D01*X008493D02*
Y003607D01*X008793Y003564D02*X00875Y003607D01*X008664D01*
X008621Y003564D01*Y003521D01*X008664Y003479D01*X00875D01*
X008793Y003436D01*Y003393D01*X00875Y00335D01*X008664D01*
X008621Y003393D01*X00905Y003564D02*X009007Y003607D01*X008921D01*
X008879Y003564D01*Y003393D01*X008921Y00335D01*X009007D01*
X00905Y003393D01*Y003564D01*X001114D02*X001071Y003607D01*X000986D01*
X000943Y003564D01*Y003393D01*X000986Y00335D01*X001071D01*
X001114Y003393D01*Y003457D01*X001071D01*X0012Y00335D02*Y003607D01*
X001329D01*X001371Y003564D01*Y003521D01*X001329Y003479D01*X0012D01*
X001457Y003607D02*X001629D01*X0015Y00335D01*X008389Y004589D02*
X008346Y004632D01*X008261D01*X008218Y004589D01*Y004418D01*
X008261Y004375D01*X008346D01*X008389Y004418D01*X008475Y004632D02*
Y004375D01*X008646D01*X008732Y004632D02*Y004461D01*Y004375D01*
Y004461D02*X008775Y004504D01*X008904Y004375D01*X008775Y004504D02*
X008904Y004632D01*X008564Y000564D02*X008521Y000607D01*X008436D01*
X008393Y000564D01*Y000393D01*X008436Y00035D01*X008521D01*
X008564Y000393D01*Y000457D01*X008521D01*X00865Y00035D02*Y000607D01*
X008821Y00035D01*Y000607D01*X009079Y000564D02*X009036Y000607D01*
X008907D01*Y00035D01*X009036D01*X009079Y000393D01*Y000564D01*D10*
X007786Y000175D02*Y000389D01*X007893D01*X007929Y000354D01*Y000318D01*
X007893Y000282D01*X007929Y000175D01*X007893Y000282D02*X007786D01*
X008Y000354D02*X008036Y000389D01*X008107D01*X008143Y000354D01*
Y000318D01*X008107Y000282D01*X008143Y000246D01*Y000211D01*
X008107Y000175D01*X008036D01*X008Y000211D01*X008107Y000282D02*
X008071D01*D11*X000943Y00435D02*Y004607D01*X001071D01*
X001114Y004564D01*Y004521D01*X001071Y004479D01*X001114Y00435D01*
X001071Y004479D02*X000943D01*X001371Y004564D02*X001329Y004607D01*
X001243D01*X0012Y004564D01*Y004521D01*X001243Y004479D01*X001329D01*
X001371Y004436D01*Y004393D01*X001329Y00435D01*X001243D01*
X0012Y004393D01*X001543Y00435D02*Y004607D01*X001629D01*X001543D02*
X001457D01*X008464Y006589D02*X008421Y006632D01*X008336D01*
X008293Y006589D01*Y006418D01*X008336Y006375D01*X008421D01*
X008464Y006418D01*Y006482D01*X008421D01*X00855Y006375D02*Y006632D01*
X008721Y006375D01*Y006632D01*X008979Y006589D02*X008936Y006632D01*
X008807D01*Y006375D01*X008936D01*X008979Y006418D01*Y006589D01*
X008386Y005375D02*Y005632D01*X008514Y005375D02*Y005632D01*X008643D01*
X008686Y005589D01*Y005546D01*X008643Y005504D01*X008686Y005375D01*
X008643Y005504D02*X008514D01*X008943Y005418D02*Y005589D01*
X0089Y005632D01*X008814D01*X008771Y005589D01*Y005418D01*
X008814Y005375D01*X0089D01*X008943Y005418D01*X008857Y005461D02*
X008943Y005375D01*X001114Y006607D02*X000943D01*Y006479D01*Y00635D01*
X001114D01*X000943Y006479D02*X001071D01*X0012Y006607D02*
X001371Y00635D01*X0012D02*X001371Y006607D01*X001543Y00635D02*
Y006607D01*X001629D01*X001543D02*X001457D01*X001114Y001514D02*
X001071Y001557D01*X000986D01*X000943Y001514D01*Y001471D01*
X000986Y001429D01*X001071D01*X001114Y001386D01*Y001343D01*
X001071Y0013D01*X000986D01*X000943Y001343D01*X0012Y0013D02*Y001557D01*
X001329D01*X001371Y001514D01*Y001471D01*X001329Y001429D01*X0012D01*
X0015Y0013D02*Y001557D01*X001629Y0013D02*Y001557D01*X001757D01*
X0018Y001514D01*Y001471D01*X001757Y001429D01*X001629D01*
X001886Y001557D02*Y001429D01*Y0013D01*Y001429D02*X002057D01*Y001557D01*
Y001429D02*Y0013D01*X002143D02*X002229Y001557D01*X002282Y001396D01*
X002314Y0013D01*X002282Y001396D02*X002175D01*X008193Y00235D02*
Y002607D01*X008279Y002479D01*X008364Y002607D01*Y00235D01*
X008621Y002564D02*X008579Y002607D01*X008493D01*X00845Y002564D01*
Y002393D01*X008493Y00235D01*X008579D01*X008621Y002393D01*Y002564D01*
X008879D02*X008836Y002607D01*X00875D01*X008707Y002564D01*Y002521D01*
X00875Y002479D01*X008836D01*X008879Y002436D01*Y002393D01*
X008836Y00235D01*X00875D01*X008707Y002393D01*X009007Y00235D02*
Y002607D01*X001114Y000564D02*X001071Y000607D01*X000986D01*
X000943Y000564D01*Y000521D01*X000986Y000479D01*X001071D01*
X001114Y000436D01*Y000393D01*X001071Y00035D01*X000986D01*
X000943Y000393D01*X0012Y00035D02*Y000607D01*X001329D01*
X001371Y000564D01*Y000521D01*X001329Y000479D01*X0012D01*X0015Y00035D02*
Y000607D01*X001629Y00035D02*Y000607D01*X001757D01*X0018Y000564D01*
Y000521D01*X001757Y000479D01*X001629D01*X002057Y000564D02*
X002014Y000607D01*X001929D01*X001886Y000564D01*Y000393D01*
X001929Y00035D01*X002014D01*X002057Y000393D01*Y000564D01*
X002143Y000607D02*Y00035D01*X002314D01*X000943Y005607D02*
X000986Y00535D01*X001029Y005607D01*X001071Y00535D01*X001114Y005607D01*
X0012Y00535D02*X001286Y005607D01*X001339Y005446D01*X001371Y00535D01*
X001339Y005446D02*X001232D01*X001457Y005607D02*Y005436D01*Y00535D01*
Y005436D02*X0015Y005479D01*X001629Y00535D01*X0015Y005479D02*
X001629Y005607D01*X001886D02*X001714D01*Y005479D01*Y00535D01*
X001886D01*X001714Y005479D02*X001843D01*X000893Y002614D02*
X000936Y002657D01*X001021D01*X001064Y002614D01*Y002571D01*
X001021Y002529D01*X001064Y002486D01*Y002443D01*X001021Y0024D01*
X000936D01*X000893Y002443D01*X001021Y002529D02*X000979D01*
X001214Y0024D02*X001236D01*Y002421D01*X001214D01*Y0024D01*
X001407Y002614D02*X00145Y002657D01*X001536D01*X001579Y002614D01*
Y002571D01*X001536Y002529D01*X001579Y002486D01*Y002443D01*
X001536Y0024D01*X00145D01*X001407Y002443D01*X001536Y002529D02*
X001493D01*D10*X002236Y000875D02*Y001089D01*X002343D01*
X002379Y001054D01*Y001018D01*X002343Y000982D01*X002379Y000875D01*
X002343Y000982D02*X002236D01*X002486Y001054D02*X002521Y001089D01*
Y000875D01*X002557D01*X002521D02*X002486D01*X005486Y000125D02*
Y000339D01*X005593D01*X005629Y000304D01*Y000268D01*X005593Y000232D01*
X005629Y000125D01*X005593Y000232D02*X005486D01*X0057Y000339D02*
X005843Y000125D01*X0057D02*X005843Y000339D01*X004407Y000125D02*
Y000339D01*X004479D01*X004407D02*X004336D01*X00455D02*
X004693Y000125D01*X00455D02*X004693Y000339D01*
M02*