M48
FMAT,2
INCH,LZ
T1C0.0984
T2C0.0360
T3C0.0130
T4C0.0340
%
T1
X00925Y01725
X00925Y00075
X00075Y01725
X00075Y00075
T2
X005875Y00175
X004143Y00175
T3
X001375Y011625
X001Y002375
X006875Y016
X005375Y005125
X005875Y01075
X004Y010375
X004Y008875
X004Y007375
X006875Y0045
X005875Y00775
X005875Y00925
X005875Y0085
X008875Y007
X00325Y0045
X003875Y007
X004Y0045
X006125Y0045
X001625Y016625
X008375Y0145
X00625Y009625
X003125Y013875
X008375Y0155
X006875Y01775
X006875Y013625
X00875Y014125
X006875Y017125
X005625Y0035
X009125Y014875
T4
X00925Y003
X008Y0075
X008Y0085
X008Y0095
X008Y0115
X008Y0105
X002Y0075
X002Y0085
X002Y0095
X008Y0025
X002Y0065
X008Y0005
X008Y0015
X008Y0035
X008Y0045
X008Y0055
X002Y0015
X002Y0025
X002Y0035
X002Y0045
X002Y0005
X008Y0065
X002Y0055
X002Y0115
X002Y0105
X00925Y002
M30
