%FSTAX24Y24*%
%MOIN*%
%IN SILK1.GBR *%
%ADD10C,0.0029*%
%ADD11C,0.0034*%
%ADD12C,0.0036*%
%ADD13C,0.0043*%
%ADD14C,0.0060*%
%ADD15C,0.0071*%
%ADD16C,0.0079*%
%ADD17C,0.0080*%
D15*X008893Y004036D02*G01X008821Y003964D01*Y00375D01*X00925D01*
Y003964D01*X009179Y004036D01*X008893D01*X008821Y004464D02*Y004179D01*
X009036D01*X00925D01*Y004464D01*X009036Y004179D02*Y004393D01*
X008893Y004893D02*X008821Y004821D01*Y004679D01*X008893Y004607D01*
X009179D01*X00925Y004679D01*Y004821D01*X009179Y004893D01*
X00925Y005036D02*X008821Y005179D01*X009089Y005268D01*X00925Y005321D01*
X009089Y005268D02*Y005089D01*X008821Y005464D02*X00925Y005536D01*
X008821Y005607D01*X00925Y005679D01*X008821Y00575D01*X00925Y005893D02*
X008821Y006036D01*X009089Y006125D01*X00925Y006179D01*X009089Y006125D02*
Y005946D01*X008821Y006321D02*X00925Y006464D01*X008821Y006607D01*
Y007036D02*Y00675D01*X009036D01*X00925D01*Y007036D01*X009036Y00675D02*
Y006964D01*X00925Y007607D02*X008821D01*Y007821D01*X008893Y007893D01*
X008964D01*X009036Y007821D01*Y007607D01*X00925Y008036D02*X008821D01*
Y00825D01*X008893Y008321D01*X008964D01*X009036Y00825D01*
X00925Y008321D01*X009036Y00825D02*Y008036D01*X008893Y00875D02*
X008821Y008679D01*Y008536D01*X008893Y008464D01*X009179D01*
X00925Y008536D01*Y008679D01*X009179Y00875D01*X008893D01*
X00925Y009321D02*X008821D01*X009036Y009464D01*X008821Y009607D01*
X00925D01*Y009821D02*X008821D01*X00925Y010036D02*X008821D01*
X00925Y010321D01*X008821D01*X00925Y010536D02*X008821D01*
X00925Y011179D02*X008821Y011321D01*X009089Y011411D01*X00925Y011464D01*
X009089Y011411D02*Y011232D01*X008893Y011893D02*X008821Y011821D01*
Y011607D01*X00925D01*Y011821D01*X009179Y011893D01*X008893D01*
X00925Y012036D02*X008821Y012179D01*X009089Y012268D01*X00925Y012321D01*
X009089Y012268D02*Y012089D01*X00925Y012464D02*X008821D01*Y012679D01*
X008893Y01275D01*X008964D01*X009036Y012679D01*Y012464D01*
X00925Y013036D02*X008821D01*Y013179D01*Y013036D02*Y012893D01*
Y013607D02*Y013321D01*X009036D01*X00925D01*Y013607D01*
X009036Y013321D02*Y013536D01*X00925Y01375D02*X008821D01*Y013964D01*
X008893Y014036D01*X008964D01*X009036Y013964D01*X00925Y014036D01*
X009036Y013964D02*Y01375D01*D17*X002441Y013564D02*Y012875D01*
X002736D01*X007559Y013564D02*Y012875D01*X007264D01*X003032Y017895D02*
X006969D01*D16*X000764Y004921D02*X001236Y005D01*X000764Y005079D01*
X001236Y005157D01*X000764Y005236D01*X001236Y005393D02*X000764Y00555D01*
X001059Y005648D01*X001236Y005707D01*X001059Y005648D02*Y005452D01*
X000764Y005864D02*X001Y006021D01*X001236D01*X001D02*X000764Y006179D01*
X001236Y006336D02*X000764D01*X001236Y00665D01*X000764D01*Y007121D02*
Y006807D01*X001D01*X001236D01*Y007121D01*X001Y006807D02*Y007043D01*
X000764Y00775D02*X001D01*X001236D01*X001D02*Y008064D01*X000764D01*
X001D02*X001236D01*X000843Y008536D02*X000764Y008457D01*Y0083D01*
X000843Y008221D01*X001157D01*X001236Y0083D01*Y008457D01*
X001157Y008536D01*X000843D01*X000764Y008693D02*X001236D01*Y009007D01*
X000843Y009479D02*X000764Y0094D01*Y009164D01*X001236D01*Y0094D01*
X001157Y009479D01*X000843D01*X000764Y00995D02*Y009636D01*X001D01*
X001236D01*Y00995D01*X001Y009636D02*Y009871D01*X001236Y010107D02*
X000764D01*Y010343D01*X000843Y010421D01*X000921D01*X001Y010343D01*
X001236Y010421D01*X001Y010343D02*Y010107D01*D14*X003525Y004675D02*
X002975D01*X003525Y005725D02*X002975D01*X003525Y004675D02*Y005725D01*
X002975Y004675D02*Y005725D01*X0064Y004675D02*X00585D01*X0064Y005725D02*
X00585D01*X0064Y004675D02*Y005725D01*X00585Y004675D02*Y005725D01*D12*
X009671Y002064D02*X009636Y0021D01*Y002171D01*X009671Y002207D01*
X009707D01*X009743Y002171D01*X009779Y002207D01*X009814D01*
X00985Y002171D01*Y0021D01*X009814Y002064D01*X009743Y002171D02*
Y002136D01*X00985Y002332D02*Y00235D01*X009832D01*Y002332D01*X00985D01*
X009671Y002493D02*X009636Y002529D01*Y0026D01*X009671Y002636D01*
X009707D01*X009743Y0026D01*X009779Y002636D01*X009814D01*X00985Y0026D01*
Y002529D01*X009814Y002493D01*X009743Y0026D02*Y002564D01*
X009636Y002707D02*X00985Y002779D01*X009636Y00285D01*D14*
X00715Y004675D02*X0066D01*X00715Y005725D02*X0066D01*X00715Y004675D02*
Y005725D01*X0066Y004675D02*Y005725D01*X00055Y011975D02*Y012525D01*
X0016Y011975D02*Y012525D01*X00055Y011975D02*X0016D01*X00055Y012525D02*
X0016D01*X004275Y004675D02*X003725D01*X004275Y005725D02*X003725D01*
X004275Y004675D02*Y005725D01*X003725Y004675D02*Y005725D01*D17*
X004975Y0048D02*X005625D01*Y00525D01*X004375D01*Y0048D01*X004975D01*
D14*X00055Y01285D02*Y0134D01*X0016Y01285D02*Y0134D01*X00055Y01285D02*
X0016D01*X00055Y0134D02*X0016D01*X0094Y015025D02*X00885D01*
X0094Y016075D02*X00885D01*X0094Y015025D02*Y016075D01*X00885Y015025D02*
Y016075D01*D17*X004685Y00685D02*Y0079D01*X004835D01*Y0078D01*
X004985D01*Y0079D01*X005135D01*Y00685D01*X004685D01*Y00985D02*Y0109D01*
X004835D01*Y0108D01*X004985D01*Y0109D01*X005135D01*Y00985D01*
X004685D01*Y00835D02*Y0094D01*X004835D01*Y0093D01*X004985D01*Y0094D01*
X005135D01*Y00835D01*X004685D01*D14*X001275Y002675D02*X000725D01*
X001275Y003725D02*X000725D01*X001275Y002675D02*Y003725D01*
X000725Y002675D02*Y003725D01*D17*X00125Y011625D02*Y011825D01*
Y011725D02*X001Y011625D01*Y011825D01*X00125Y011725D01*X0085Y003D02*
X00875D01*X008625Y003125D02*Y002875D01*X00875Y002D02*X0085D01*D15*
X005404Y00108D02*Y001151D01*X005332Y001223D01*X005261D01*
X005189Y001151D01*Y000794D01*X005261D01*X005118D01*X004904Y000866D02*
X004832Y000794D01*Y001223D01*X004761D01*X004832D02*X004904D01*
X003857Y015538D02*X003786Y015609D01*X003571D01*Y015181D01*X003786D01*
X003857Y015252D01*Y015538D01*X004Y015609D02*X004071Y015181D01*
X004143Y015609D01*X004214Y015181D01*X004286Y015609D01*
X004429Y015181D02*Y015609D01*X004571Y015395D01*X004714Y015609D01*
Y015181D01*X004929Y015538D02*X005Y015609D01*Y015181D01*X005071D01*
X005D02*X004929D01*X005571Y015538D02*X0055Y015609D01*X005357D01*
X005286Y015538D01*Y015252D01*X005357Y015181D01*X0055D01*
X005571Y015252D01*Y015538D01*X005429Y015467D02*Y015324D01*
X006Y015538D02*X005929Y015609D01*X005786D01*X005714Y015538D01*
Y015252D01*X005786Y015181D01*X005929D01*X006Y015252D01*Y015538D01*
X005857Y015467D02*Y015324D01*X006429Y015538D02*X006357Y015609D01*
X006214D01*X006143Y015538D01*Y015252D01*X006214Y015181D01*X006357D01*
X006429Y015252D01*Y015538D01*X006286Y015467D02*Y015324D01*D12*
X003194Y005986D02*X003159Y006022D01*X003087D01*X003051Y005986D01*
Y005843D01*X003087Y005807D01*X003159D01*X003194Y005843D01*
X003301Y005986D02*X003337Y006022D01*Y005807D01*X003373D01*X003337D02*
X003301D01*X006069Y005986D02*X006034Y006022D01*X005962D01*
X005926Y005986D01*Y005843D01*X005962Y005807D01*X006034D01*
X006069Y005843D01*X006141Y005986D02*X006176Y006022D01*X006248D01*
X006284Y005986D01*Y00595D01*X006248Y005914D01*X006284Y005879D01*
Y005843D01*X006248Y005807D01*X006176D01*X006141Y005843D01*
X006248Y005914D02*X006212D01*X006819Y005986D02*X006784Y006022D01*
X006712D01*X006676Y005986D01*Y005843D01*X006712Y005807D01*X006784D01*
X006819Y005843D01*X006998Y005807D02*Y006022D01*X006891Y005897D01*
X007034D01*X001854Y012379D02*X001818Y012414D01*X001711D01*Y0122D01*
X001818D01*X001854Y012236D01*Y012379D01*X001961D02*X001996Y012414D01*
Y0122D01*X002032D01*X001996D02*X001961D01*D13*X007439Y007632D02*
X007268D01*Y007504D01*X007311Y007546D01*X007396D01*X007439Y007504D01*
Y007418D01*X007396Y007375D01*X007311D01*X007268Y007418D01*
X007439Y008589D02*X007396Y008632D01*X007311D01*X007268Y008589D01*
Y008418D01*X007311Y008375D01*X007396D01*X007439Y008418D01*Y008482D01*
X007396Y008525D01*X007311D01*X007268Y008482D01*Y009632D02*X007439D01*
X007311Y009375D01*X007268Y011418D02*X007311Y011375D01*X007396D01*
X007439Y011418D01*Y011589D01*X007396Y011632D01*X007311D01*
X007268Y011589D01*Y011525D01*X007311Y011482D01*X007396D01*
X007439Y011525D01*X007396Y010504D02*X007439Y010546D01*Y010589D01*
X007396Y010632D01*X007311D01*X007268Y010589D01*Y010546D01*
X007311Y010504D01*X007396D01*X007439Y010461D01*Y010418D01*
X007396Y010375D01*X007311D01*X007268Y010418D01*Y010461D01*
X007311Y010504D01*D12*X002436Y00735D02*X002507Y007564D01*
X002552Y00743D01*X002579Y00735D01*X002552Y00743D02*X002462D01*
X002793Y007529D02*X002757Y007564D01*X002686D01*X00265Y007529D01*
Y007386D01*X002686Y00735D01*X002757D01*X002793Y007386D01*Y007529D01*
X002721Y007493D02*Y007421D01*X002471Y008529D02*X002507Y008564D01*
Y00835D01*X002543D01*X002507D02*X002471D01*X00265Y008529D02*
X002686Y008564D01*X002757D01*X002793Y008529D01*Y008493D01*
X002757Y008457D01*X002793Y008421D01*Y008386D01*X002757Y00835D01*
X002686D01*X00265Y008386D01*X002757Y008457D02*X002721D01*X002864D02*
X003007D01*X003221Y008529D02*X003186Y008564D01*X003114D01*
X003079Y008529D01*Y008386D01*X003114Y00835D01*X003186D01*
X003221Y008386D01*X003293Y008564D02*Y00835D01*X003436D01*
X003507Y008564D02*Y008421D01*Y00835D01*Y008421D02*X003543Y008457D01*
X00365Y00835D01*X003543Y008457D02*X00365Y008564D01*X002471Y009529D02*
X002507Y009564D01*Y00935D01*X002543D01*X002507D02*X002471D01*
X00265Y009529D02*X002686Y009564D01*X002757D01*X002793Y009529D01*
Y009493D01*X002757Y009457D01*X00265Y009386D01*Y00935D01*X002793D01*
X002864Y009457D02*X003007D01*X003079Y00935D02*Y009564D01*
X00315Y009457D01*X003221Y009564D01*Y00935D01*X003329D02*Y009564D01*
X003579Y009529D02*X003543Y009564D01*X003471D01*X003436Y009529D01*
Y009493D01*X003471Y009457D01*X003543D01*X003579Y009421D01*Y009386D01*
X003543Y00935D01*X003471D01*X003436Y009386D01*X003793Y009529D02*
X003757Y009564D01*X003686D01*X00365Y009529D01*Y009386D01*
X003686Y00935D01*X003757D01*X003793Y009386D01*Y009529D01*D13*
X007343Y00285D02*Y003107D01*X007471D01*X007514Y003064D01*Y003021D01*
X007471Y002979D01*X007514Y00285D01*X007471Y002979D02*X007343D01*
X007771Y003064D02*X007729Y003107D01*X007643D01*X0076Y003064D01*
Y003021D01*X007643Y002979D01*X007729D01*X007771Y002936D01*Y002893D01*
X007729Y00285D01*X007643D01*X0076Y002893D01*X007943Y00285D02*
Y003107D01*X008029D01*X007943D02*X007857D01*D12*X002436Y00635D02*
X002507Y006564D01*X002552Y00643D01*X002579Y00635D01*X002552Y00643D02*
X002462D01*X002686Y006529D02*X002721Y006564D01*Y00635D01*X002757D01*
X002721D02*X002686D01*D13*X007329Y00085D02*Y001107D01*X007414D01*
X007329D02*X007243D01*X0075D02*X007671Y00085D01*X0075D02*
X007671Y001107D01*X007243Y001725D02*Y001982D01*X007371D01*
X007414Y001939D01*Y001896D01*X007371Y001854D01*X007414Y001725D01*
X007371Y001854D02*X007243D01*X0075Y001982D02*X007671Y001725D01*
X0075D02*X007671Y001982D01*X007139Y003814D02*X007096Y003857D01*
X007011D01*X006968Y003814D01*Y003643D01*X007011Y0036D01*X007096D01*
X007139Y003643D01*Y003707D01*X007096D01*X007225Y0036D02*Y003857D01*
X007396Y0036D01*Y003857D01*X007654Y003814D02*X007611Y003857D01*
X007482D01*Y0036D01*X007611D01*X007654Y003643D01*Y003814D01*
X007241Y004646D02*X007284Y004689D01*X007369D01*X007412Y004646D01*
Y004603D01*X007369Y004561D01*X007241Y004475D01*Y004432D01*X007412D01*
X007268Y005564D02*X007311Y005607D01*X007396D01*X007439Y005564D01*
Y005521D01*X007396Y005479D01*X007439Y005436D01*Y005393D01*
X007396Y00535D01*X007311D01*X007268Y005393D01*X007396Y005479D02*
X007354D01*D12*X002304Y002054D02*X002268Y002089D01*X002196D01*
X002161Y002054D01*Y001911D01*X002196Y001875D01*X002268D01*
X002304Y001911D01*Y001964D01*X002268D01*X002375Y001875D02*Y002089D01*
X002518Y001875D01*Y002089D01*X002732Y002054D02*X002696Y002089D01*
X002589D01*Y001875D01*X002696D01*X002732Y001911D01*Y002054D01*
X002161Y002875D02*Y003089D01*X002268D01*X002304Y003054D01*Y003018D01*
X002268Y002982D01*X002304Y002875D01*X002268Y002982D02*X002161D01*
X002518Y003054D02*X002482Y003089D01*X002411D01*X002375Y003054D01*
Y003018D01*X002411Y002982D01*X002482D01*X002518Y002946D01*Y002911D01*
X002482Y002875D01*X002411D01*X002375Y002911D01*X002661Y002875D02*
Y003089D01*X002732D01*X002661D02*X002589D01*X002286Y003964D02*
X002357Y00375D01*X002429Y003964D01*X002643Y003929D02*X002607Y003964D01*
X002536D01*X0025Y003929D01*Y003786D01*X002536Y00375D01*X002607D01*
X002643Y003786D01*X002857Y003929D02*X002821Y003964D01*X00275D01*
X002714Y003929D01*Y003786D01*X00275Y00375D01*X002821D01*
X002857Y003786D01*X002436Y00435D02*X002507Y004564D01*X002552Y00443D01*
X002579Y00435D01*X002552Y00443D02*X002462D01*X00265Y004529D02*
X002686Y004564D01*X002757D01*X002793Y004529D01*Y004493D01*
X002757Y004457D01*X002793Y004421D01*Y004386D01*X002757Y00435D01*
X002686D01*X00265Y004386D01*X002757Y004457D02*X002721D01*
X002161Y000875D02*Y001089D01*X002268D01*X002304Y001054D01*Y001018D01*
X002268Y000982D01*X002304Y000875D01*X002268Y000982D02*X002161D01*
X002375Y000875D02*X002446Y001089D01*X002491Y000955D01*
X002518Y000875D01*X002491Y000955D02*X002402D01*X002589Y001089D02*
X002625Y000875D01*X002661Y001089D01*X002696Y000875D01*
X002732Y001089D01*D13*X007396Y00635D02*Y006607D01*X007268Y006457D01*
X007439D01*D12*X003944Y005986D02*X003909Y006022D01*X003837D01*
X003801Y005986D01*Y005843D01*X003837Y005807D01*X003909D01*
X003944Y005843D01*X004016Y005986D02*X004051Y006022D01*X004123D01*
X004159Y005986D01*Y00595D01*X004123Y005914D01*X004016Y005843D01*
Y005807D01*X004159D01*X002436Y00535D02*X002507Y005564D01*
X002552Y00543D01*X002579Y00535D01*X002552Y00543D02*X002462D01*
X00265Y005529D02*X002686Y005564D01*X002757D01*X002793Y005529D01*
Y005493D01*X002757Y005457D01*X00265Y005386D01*Y00535D01*X002793D01*
X002471Y011529D02*X002507Y011564D01*Y01135D01*X002543D01*X002507D02*
X002471D01*X002793Y011529D02*X002757Y011564D01*X002686D01*
X00265Y011529D01*Y011386D01*X002686Y01135D01*X002757D01*
X002793Y011386D01*Y011529D01*X002721Y011493D02*Y011421D01*
X002864Y011457D02*X003007D01*X003221Y011529D02*X003186Y011564D01*
X003114D01*X003079Y011529D01*Y011493D01*X003114Y011457D01*X003186D01*
X003221Y011421D01*Y011386D01*X003186Y01135D01*X003114D01*
X003079Y011386D01*X003436Y011529D02*X0034Y011564D01*X003329D01*
X003293Y011529D01*Y011493D01*X003329Y011457D01*X0034D01*
X003436Y011421D01*Y011386D01*X0034Y01135D01*X003329D01*
X003293Y011386D01*X002471Y010529D02*X002507Y010564D01*Y01035D01*
X002543D01*X002507D02*X002471D01*X002686Y010529D02*X002721Y010564D01*
Y01035D01*X002757D01*X002721D02*X002686D01*X002864Y010457D02*
X003007D01*X003079Y01035D02*Y010564D01*X00315Y010457D01*
X003221Y010564D01*Y01035D01*X003436Y010529D02*X0034Y010564D01*
X003329D01*X003293Y010529D01*Y010386D01*X003329Y01035D01*X0034D01*
X003436Y010386D01*Y010529D01*X00365D02*X003614Y010564D01*X003543D01*
X003507Y010529D01*Y010493D01*X003543Y010457D01*X003614D01*
X00365Y010421D01*Y010386D01*X003614Y01035D01*X003543D01*
X003507Y010386D01*X003757Y01035D02*Y010564D01*D10*X004794Y005096D02*
Y004925D01*X004908D01*X005079Y005068D02*X005051Y005096D01*X004965D01*
Y004925D01*X005051D01*X005079Y004954D01*Y005068D01*X005251D02*
X005222Y005096D01*X005165D01*X005136Y005068D01*Y004954D01*
X005165Y004925D01*X005222D01*X005251Y004954D01*Y005068D01*D12*
X001711Y013075D02*Y013289D01*X001818D01*X001854Y013254D01*Y013218D01*
X001818Y013182D01*X001854Y013075D01*X001818Y013182D02*X001711D01*
X001961Y013254D02*X001996Y013289D01*Y013075D01*X002032D01*X001996D02*
X001961D01*X008786Y01625D02*Y016464D01*X008893D01*X008929Y016429D01*
Y016393D01*X008893Y016357D01*X008929Y01625D01*X008893Y016357D02*
X008786D01*X009Y016429D02*X009036Y016464D01*X009107D01*
X009143Y016429D01*Y016393D01*X009107Y016357D01*X009Y016286D01*
Y01625D01*X009143D01*D11*X003839Y008206D02*Y008D01*X003976D01*
X004045Y008206D02*X004114Y008D01*X004182Y008206D01*X004388Y008171D02*
X004354Y008206D01*X004285D01*X004251Y008171D01*Y008034D01*
X004285Y008D01*X004354D01*X004388Y008034D01*X004456Y008171D02*
X004491Y008206D01*X004559D01*X004594Y008171D01*Y008137D01*
X004559Y008103D01*X004456Y008034D01*Y008D01*X004594D01*
X004799Y008171D02*X004765Y008206D01*X004696D01*X004662Y008171D01*
Y008034D01*X004696Y008D01*X004765D01*X004799Y008034D01*Y008086D01*
X004765D01*X004902Y008171D02*X004936Y008206D01*Y008D01*X004971D01*
X004936D02*X004902D01*X005074Y008206D02*X005211D01*X005108Y008D01*
X005416Y008171D02*X005382Y008206D01*X005279D01*Y008D01*X005382D01*
X005416Y008034D01*Y008171D01*X005485Y008D02*Y008206D01*X005588D01*
X005622Y008171D01*Y008137D01*X005588Y008103D01*X005622Y008069D01*
Y008034D01*X005588Y008D01*X005485D01*X005588Y008103D02*X005485D01*
X005691Y008206D02*X005759Y008D01*X005828Y008206D01*X005896Y008D02*
Y008206D01*X005999D01*X006034Y008171D01*Y008137D01*X005999Y008103D01*
X006034Y008D01*X005999Y008103D02*X005896D01*X003839Y011206D02*Y011D01*
X003976D01*X004045Y011206D02*X004114Y011D01*X004182Y011206D01*
X004388Y011171D02*X004354Y011206D01*X004285D01*X004251Y011171D01*
Y011034D01*X004285Y011D01*X004354D01*X004388Y011034D01*
X004456Y011171D02*X004491Y011206D01*X004559D01*X004594Y011171D01*
Y011137D01*X004559Y011103D01*X004456Y011034D01*Y011D01*X004594D01*
X004799Y011171D02*X004765Y011206D01*X004696D01*X004662Y011171D01*
Y011034D01*X004696Y011D01*X004765D01*X004799Y011034D01*Y011086D01*
X004765D01*X004902Y011171D02*X004936Y011206D01*Y011D01*X004971D01*
X004936D02*X004902D01*X005074Y011206D02*X005211D01*X005108Y011D01*
X005416Y011171D02*X005382Y011206D01*X005279D01*Y011D01*X005382D01*
X005416Y011034D01*Y011171D01*X005485Y011D02*Y011206D01*X005588D01*
X005622Y011171D01*Y011137D01*X005588Y011103D01*X005622Y011069D01*
Y011034D01*X005588Y011D01*X005485D01*X005588Y011103D02*X005485D01*
X005691Y011206D02*X005759Y011D01*X005828Y011206D01*X005896Y011D02*
Y011206D01*X005999D01*X006034Y011171D01*Y011137D01*X005999Y011103D01*
X006034Y011D01*X005999Y011103D02*X005896D01*X003839Y009706D02*Y0095D01*
X003976D01*X004045Y009706D02*X004114Y0095D01*X004182Y009706D01*
X004388Y009671D02*X004354Y009706D01*X004285D01*X004251Y009671D01*
Y009534D01*X004285Y0095D01*X004354D01*X004388Y009534D01*
X004456Y009671D02*X004491Y009706D01*X004559D01*X004594Y009671D01*
Y009637D01*X004559Y009603D01*X004456Y009534D01*Y0095D01*X004594D01*
X004799Y009671D02*X004765Y009706D01*X004696D01*X004662Y009671D01*
Y009534D01*X004696Y0095D01*X004765D01*X004799Y009534D01*Y009586D01*
X004765D01*X004902Y009671D02*X004936Y009706D01*Y0095D01*X004971D01*
X004936D02*X004902D01*X005074Y009706D02*X005211D01*X005108Y0095D01*
X005416Y009671D02*X005382Y009706D01*X005279D01*Y0095D01*X005382D01*
X005416Y009534D01*Y009671D01*X005485Y0095D02*Y009706D01*X005588D01*
X005622Y009671D01*Y009637D01*X005588Y009603D01*X005622Y009569D01*
Y009534D01*X005588Y0095D01*X005485D01*X005588Y009603D02*X005485D01*
X005691Y009706D02*X005759Y0095D01*X005828Y009706D01*X005896Y0095D02*
Y009706D01*X005999D01*X006034Y009671D01*Y009637D01*X005999Y009603D01*
X006034Y0095D01*X005999Y009603D02*X005896D01*D12*X000944Y003986D02*
X000909Y004022D01*X000837D01*X000801Y003986D01*Y003843D01*
X000837Y003807D01*X000909D01*X000944Y003843D01*X001159Y004022D02*
X001016D01*Y003914D01*X001051Y00395D01*X001123D01*X001159Y003914D01*
Y003843D01*X001123Y003807D01*X001051D01*X001016Y003843D01*
M02*