%FSTAX24Y24*%
%MOIN*%
%IN SILK2.GBR *%
%ADD10C,0.0057*%
%ADD11C,0.0080*%
D10*X006Y0055D02*G01Y005843D01*X005829D01*X005771Y005786D01*Y005729D01*
X005829Y005671D01*X005771Y0055D01*X005829Y005671D02*X006D01*
X005429Y005843D02*X005657D01*Y005671D01*Y0055D01*X005429D01*
X005657Y005671D02*X005486D01*X005314Y005843D02*X0052Y0055D01*
X005086Y005843D01*X004971Y005671D02*X004743D01*X0044Y005786D02*
X004457Y005843D01*X004571D01*X004629Y005786D01*Y005557D01*
X004571Y0055D01*X004457D01*X0044Y005557D01*Y005786D01*
X004514Y005729D02*Y005614D01*X004286Y005786D02*X004229Y005843D01*
X004114D01*X004057Y005786D01*Y005729D01*X004114Y005671D01*
X004286Y005557D01*Y0055D01*X004057D01*X00705Y006464D02*
X006993Y006121D01*X006936Y006464D01*X006879Y006121D01*
X006821Y006464D01*X006707Y006121D02*X006593Y006464D01*X006521Y00625D01*
X006479Y006121D01*X006521Y00625D02*X006664D01*X006364Y006464D02*
X00625Y006293D01*Y006121D01*Y006293D02*X006136Y006464D01*
X006021Y006121D02*Y006464D01*X005793Y006121D01*Y006464D01*X00545D02*
X005679D01*Y006293D01*Y006121D01*X00545D01*X005679Y006293D02*
X005507D01*X004993Y006464D02*Y006293D01*Y006121D01*Y006293D02*
X004764D01*Y006464D01*Y006293D02*Y006121D01*X004421Y006407D02*
X004479Y006464D01*X004593D01*X00465Y006407D01*Y006179D01*
X004593Y006121D01*X004479D01*X004421Y006179D01*Y006407D01*
X004307Y006464D02*Y006121D01*X004079D01*X003736Y006407D02*
X003793Y006464D01*X003964D01*Y006121D01*X003793D01*X003736Y006179D01*
Y006407D01*X003393Y006464D02*X003621D01*Y006293D01*Y006121D01*
X003393D01*X003621Y006293D02*X00345D01*X003279Y006121D02*Y006464D01*
X003107D01*X00305Y006407D01*Y00635D01*X003107Y006293D01*
X00305Y006121D01*X003107Y006293D02*X003279D01*D11*X0055Y0035D02*
Y00325D01*X005375Y003375D02*X005625D01*X004625D02*X004875D01*
M02*